<?xml version="1.0" standalone="no"?>
<!DOCTYPE svg PUBLIC "-//W3C//DTD SVG 20010904//EN"
 "http://www.w3.org/TR/2001/REC-SVG-20010904/DTD/svg10.dtd">
<svg version="1.0" xmlns="http://www.w3.org/2000/svg"
 width="300.000000pt" height="151.000000pt" viewBox="0 0 300.000000 151.000000"
 preserveAspectRatio="xMidYMid meet">
<metadata>
Created by potrace 1.10, written by Peter Selinger 2001-2011
</metadata>
<g transform="translate(0.000000,151.000000) scale(0.100000,-0.100000)"
fill="#000000" stroke="none">
<path d="M700 1299 c-98 -28 -140 -45 -188 -77 -57 -38 -109 -94 -118 -129 -4
-13 -10 -23 -15 -23 -5 0 -9 -7 -9 -15 0 -30 -64 26 -90 79 -14 29 -37 58 -53
66 -24 13 -30 13 -55 0 -23 -14 -27 -22 -26 -55 1 -22 5 -50 9 -62 6 -18 2
-22 -24 -28 -32 -7 -61 -38 -61 -66 0 -22 31 -56 64 -68 19 -8 37 -7 68 3 38
14 43 13 95 -12 46 -23 54 -30 50 -50 -6 -32 29 -164 58 -222 13 -26 38 -59
56 -74 36 -30 36 -31 -44 -120 -42 -47 -46 -50 -96 -50 -43 -1 -56 -6 -72 -25
-42 -52 -10 -121 56 -121 34 0 35 -1 35 -38 0 -27 7 -45 23 -60 29 -27 47 -28
97 -2 53 27 60 56 34 147 -5 17 -2 23 10 23 11 0 16 -9 16 -29 0 -35 15 -48
28 -25 10 19 -5 94 -19 94 -5 0 -9 -4 -9 -10 0 -5 -7 -10 -15 -10 -17 0 -11
15 19 54 13 16 17 16 29 5 7 -8 13 -27 13 -43 -1 -16 5 -31 12 -33 7 -3 12 4
12 15 0 26 39 36 60 17 15 -13 19 -12 38 10 21 24 50 36 37 15 -9 -15 1 -12
61 16 41 19 59 23 67 15 16 -16 82 -14 96 3 6 7 28 16 49 19 20 3 44 8 53 12
13 5 17 -5 22 -62 4 -37 7 -96 7 -130 0 -61 7 -75 39 -80 11 -1 12 10 8 55 -3
31 -8 68 -11 82 -4 14 -9 59 -12 100 -6 74 -6 76 20 90 24 13 32 11 81 -13 30
-15 55 -32 55 -38 0 -7 11 -27 26 -46 30 -40 72 -45 104 -11 24 26 25 49 5 88
-14 27 -14 30 15 59 17 16 30 37 30 46 0 21 -57 75 -79 75 -19 0 -62 -27 -74
-47 -6 -9 -27 -3 -91 29 l-83 41 29 53 c16 29 74 104 129 166 98 110 102 113
152 121 80 11 111 68 71 126 -14 20 -23 23 -63 19 l-46 -5 -1 35 c-1 38 -31
72 -64 72 -31 0 -60 -48 -60 -96 0 -37 -7 -54 -47 -104 l-47 -61 -23 50 c-30
63 -90 131 -152 170 -93 60 -220 90 -291 70z m195 -56 c61 -21 141 -80 179
-132 49 -67 69 -124 69 -195 -2 -114 -19 -168 -84 -254 -30 -40 -38 -56 -30
-66 6 -7 14 -34 17 -59 8 -53 -5 -77 -42 -77 -24 0 -29 11 -38 70 -5 38 -31
31 -31 -8 -1 -19 3 -36 7 -38 19 -12 7 -44 -18 -50 -46 -12 -78 7 -84 46 -3
22 -10 35 -20 35 -11 0 -14 -10 -12 -42 3 -51 -13 -60 -103 -54 -9 1 -15 11
-15 25 0 44 -12 86 -26 86 -20 0 -23 -12 -14 -60 10 -55 -1 -72 -44 -68 -30 3
-31 5 -32 53 -1 28 -2 58 -3 68 -1 10 -11 21 -23 26 -37 14 -103 102 -113 148
-2 10 -8 37 -13 61 -20 87 -2 232 39 322 50 108 133 168 254 183 44 6 134 -4
180 -20z m457 -38 c9 -19 8 -29 -6 -49 -20 -31 -20 -32 -1 -39 8 -4 27 0 42 8
49 26 68 12 35 -23 -10 -11 -10 -17 -1 -28 19 -23 4 -28 -51 -17 -27 6 -50 6
-50 2 0 -5 -7 -9 -16 -9 -8 0 -12 -5 -9 -10 4 -6 -20 -38 -53 -72 l-59 -61 -5
32 c-3 18 0 38 6 44 6 7 35 42 64 79 39 50 53 75 51 95 -4 57 0 73 21 73 12 0
25 -10 32 -25z m-1116 -61 c10 -14 24 -40 33 -57 9 -17 34 -42 56 -54 33 -19
39 -27 37 -49 -3 -18 0 -25 10 -22 7 3 13 19 13 39 0 34 22 85 32 75 3 -3 1
-25 -5 -48 -6 -24 -14 -59 -17 -78 -9 -60 -20 -68 -50 -38 -16 16 -21 28 -14
30 17 6 20 38 3 38 -8 0 -14 -7 -14 -15 0 -11 -7 -10 -35 6 l-35 21 -26 -21
c-34 -27 -85 -27 -109 -1 -23 25 -9 44 43 61 53 17 57 24 33 62 -11 19 -21 44
-21 56 0 31 45 28 66 -5z m1244 -61 c0 -7 -6 -13 -14 -13 -10 0 -14 10 -14 30
1 27 2 28 14 12 7 -9 14 -23 14 -29z m-240 -173 c-43 -52 -60 -67 -60 -53 0 7
91 103 98 103 2 0 -15 -22 -38 -50z m-51 -300 c45 -22 86 -40 92 -40 6 0 20
11 31 26 24 29 64 30 82 1 9 -16 5 -24 -29 -54 -34 -29 -37 -36 -24 -43 26
-15 44 -67 29 -85 -24 -28 -50 -18 -70 29 -25 56 -28 57 -135 95 -101 36 -117
46 -86 56 23 7 28 21 9 27 -12 4 -3 28 11 28 4 0 45 -18 90 -40z m-649 -122
c0 -25 -13 -48 -50 -93 -28 -33 -50 -63 -50 -67 0 -4 9 -23 20 -43 26 -47 25
-80 -2 -99 -27 -19 -77 -21 -79 -3 -1 6 -2 32 -3 57 l-1 45 -47 -3 c-52 -4
-72 15 -61 56 5 19 12 22 61 22 53 0 57 2 99 48 24 26 54 62 66 79 28 42 47
42 47 1z"/>
<path d="M750 1240 c0 -5 9 -10 20 -10 11 0 20 5 20 10 0 6 -9 10 -20 10 -11
0 -20 -4 -20 -10z"/>
<path d="M896 1206 c33 -12 74 -32 91 -44 40 -29 92 -88 104 -119 5 -14 12
-23 15 -20 10 10 -34 72 -82 117 -47 44 -135 90 -169 89 -11 0 7 -10 41 -23z"/>
<path d="M951 1008 c-16 -55 -56 -124 -97 -168 -25 -26 -30 -38 -22 -47 6 -8
13 -11 16 -8 3 3 11 0 19 -6 7 -6 13 -9 13 -6 0 3 13 2 30 -3 23 -7 36 -4 61
13 51 35 72 70 77 132 4 55 3 58 -34 96 -21 21 -41 39 -44 39 -4 0 -12 -19
-19 -42z m69 -59 c0 -34 -26 -98 -53 -127 l-21 -22 -12 30 c-12 28 -11 34 16
77 16 26 33 62 36 81 l7 35 13 -24 c7 -13 13 -36 14 -50z m-114 -147 c-10 -10
-29 15 -21 28 6 9 10 8 17 -4 6 -10 7 -20 4 -24z"/>
<path d="M464 905 c-43 -104 31 -205 150 -205 50 0 94 30 120 80 17 34 13 38
-59 65 -27 10 -79 35 -114 57 -34 21 -67 38 -73 38 -5 0 -16 -16 -24 -35z m82
-40 c32 -19 63 -35 68 -35 6 0 17 -4 25 -9 12 -8 12 -12 2 -24 -7 -9 -11 -21
-10 -29 5 -40 0 -47 -32 -38 -41 12 -75 35 -93 63 -15 22 -33 107 -23 107 2 0
31 -16 63 -35z m149 -65 c7 -12 -12 -50 -25 -50 -11 0 -14 43 -3 53 9 10 21 9
28 -3z"/>
<path d="M755 717 c-28 -43 -39 -88 -24 -98 8 -5 20 -2 30 7 10 9 26 13 41 9
30 -8 63 24 54 52 -6 19 -55 53 -75 53 -6 0 -17 -10 -26 -23z m57 -26 c39 -35
31 -52 -10 -22 -16 11 -31 18 -34 16 -2 -2 -4 5 -5 15 -2 28 11 25 49 -9z"/>
<path d="M1436 905 c-9 -9 -16 -20 -16 -25 0 -10 64 -30 96 -30 18 0 22 -10
33 -96 20 -149 36 -179 74 -136 21 23 21 36 3 65 -8 12 -18 55 -22 95 -5 60
-4 72 8 72 17 0 28 -40 28 -101 0 -21 5 -41 10 -44 6 -4 10 23 10 74 l0 81 29
0 c16 0 37 8 46 17 16 16 17 14 10 -27 -11 -65 -33 -121 -52 -135 -24 -17 -27
-107 -4 -103 9 2 22 16 29 31 18 38 32 34 33 -10 1 -21 3 -29 6 -18 2 11 6 30
9 43 7 36 19 26 45 -38 24 -62 44 -75 69 -45 14 17 9 32 -47 150 -26 56 -33
82 -33 132 0 48 -3 63 -14 63 -8 0 -17 -3 -19 -7 -6 -10 -254 -9 -288 1 -19 5
-31 3 -43 -9z m151 -51 c-9 -9 -28 6 -21 18 4 6 10 6 17 -1 6 -6 8 -13 4 -17z
m193 -77 c0 -7 9 -30 21 -51 21 -39 19 -57 -3 -39 -7 6 -28 10 -45 8 -18 -1
-33 2 -33 7 0 4 3 8 8 8 8 0 32 49 32 67 0 7 5 13 10 13 6 0 10 -6 10 -13z"/>
<path d="M2673 899 c-17 -17 -16 -34 1 -48 24 -20 31 -72 12 -83 -23 -13 -20
-38 5 -38 21 0 22 -3 15 -61 -5 -56 -4 -60 12 -54 9 5 32 10 50 13 l32 4 0
-51 c0 -28 5 -51 10 -51 6 0 10 8 10 18 0 10 6 30 13 45 10 21 17 25 37 20 44
-12 72 -8 84 11 8 14 8 20 -1 23 -30 11 -79 50 -88 71 -5 12 -15 22 -20 22
-16 0 -35 -22 -35 -41 0 -16 -19 -29 -41 -29 -5 0 -9 16 -9 36 0 29 3 35 16
30 20 -8 54 10 54 29 0 9 -13 15 -37 17 -31 2 -39 7 -41 27 -3 22 -1 23 28 17
18 -3 43 -6 55 -6 20 0 24 -7 31 -52 l7 -53 13 65 c18 92 19 90 -23 90 -32 0
-94 14 -163 36 -8 3 -21 -1 -27 -7z m72 -48 c0 -22 -19 -23 -32 -2 -10 16 -8
18 10 17 12 -1 22 -7 22 -15z m5 -85 c0 -18 -16 -29 -30 -21 -13 8 -1 35 16
35 8 0 14 -6 14 -14z m119 -100 c10 -12 6 -15 -19 -21 -36 -8 -45 -3 -37 20 8
19 41 20 56 1z"/>
<path d="M2397 882 c-14 -15 -17 -41 -17 -138 l-1 -119 -23 29 c-22 26 -25 27
-47 13 -13 -8 -45 -17 -71 -20 -46 -4 -48 -3 -48 21 0 14 8 65 17 114 13 67
14 91 5 100 -9 9 -16 7 -31 -6 -19 -17 -21 -29 -37 -219 l-6 -68 41 7 c41 7
41 6 41 -25 0 -19 4 -30 10 -26 6 3 10 17 10 31 0 14 4 22 10 19 6 -3 10 -2
10 4 0 12 36 6 68 -11 18 -9 27 -9 43 0 18 11 19 9 19 -29 0 -24 4 -38 10 -34
6 3 10 24 10 46 0 22 4 48 9 57 13 25 18 265 5 269 -6 2 -18 -5 -27 -15z"/>
<path d="M2591 873 c-21 -17 -21 -21 -10 -73 6 -30 17 -62 24 -70 8 -8 17 -44
21 -80 7 -60 6 -64 -9 -51 -10 7 -17 20 -17 27 0 19 -42 82 -59 89 -25 10 -24
-3 4 -39 18 -23 25 -42 20 -55 -8 -26 4 -93 16 -85 5 3 9 17 9 32 l1 27 15
-27 c17 -32 23 -33 48 -15 18 13 18 18 2 116 -9 56 -16 118 -16 139 0 44 -9
82 -20 82 -4 0 -17 -8 -29 -17z"/>
<path d="M1960 858 c-57 -29 -90 -78 -90 -131 0 -35 6 -46 45 -84 39 -37 45
-48 45 -83 0 -25 4 -39 10 -35 6 3 10 23 10 43 0 28 3 33 10 22 9 -13 10 -13
10 0 0 8 13 22 29 31 29 17 29 17 38 -15 6 -21 15 -31 28 -31 17 0 20 7 20 40
-1 22 -4 55 -9 73 -6 26 -5 32 8 32 17 0 39 34 29 44 -3 3 -48 6 -98 6 -69 0
-96 -4 -105 -15 -20 -24 -2 -35 56 -35 55 0 62 -6 48 -44 -12 -31 -92 -7 -114
33 -16 32 -12 76 10 96 20 18 21 18 27 -3 6 -26 23 -19 23 9 0 25 22 24 45 -1
13 -15 22 -17 36 -9 22 11 25 42 6 58 -28 23 -71 23 -117 -1z"/>
<path d="M2468 823 c-14 -16 -15 -32 -6 -118 5 -55 12 -102 14 -105 3 -2 13 1
22 6 23 15 28 77 8 94 -9 7 -16 28 -16 48 l0 36 38 -37 c40 -39 56 -45 68 -24
4 6 4 9 0 5 -8 -7 -66 54 -85 90 -14 27 -23 28 -43 5z"/>
<path d="M1610 450 c0 -5 9 -10 20 -10 17 0 20 -7 20 -50 0 -27 5 -50 10 -50
6 0 10 23 10 50 0 43 3 50 20 50 11 0 20 5 20 10 0 6 -22 10 -50 10 -27 0 -50
-4 -50 -10z"/>
<path d="M1735 448 c-26 -73 -34 -102 -29 -107 3 -3 11 2 18 12 16 21 46 23
46 2 0 -8 7 -15 15 -15 12 0 10 11 -7 60 -22 59 -34 73 -43 48z"/>
<path d="M1780 450 c0 -5 9 -10 20 -10 17 0 20 -7 20 -50 0 -27 5 -50 10 -50
6 0 10 23 10 50 l0 50 35 0 35 0 0 -50 c0 -27 5 -50 10 -50 6 0 10 23 10 50 0
43 3 50 20 50 11 0 20 5 20 10 0 6 -38 10 -95 10 -57 0 -95 -4 -95 -10z"/>
<path d="M1982 448 c-7 -7 -12 -28 -12 -48 0 -41 14 -60 45 -60 31 0 45 19 45
60 0 41 -14 60 -45 60 -12 0 -26 -5 -33 -12z m53 -48 c0 -28 -4 -35 -20 -35
-13 0 -21 8 -23 23 -5 34 5 54 25 50 13 -2 18 -13 18 -38z"/>
<path d="M2081 441 c-15 -27 -14 -63 2 -85 19 -25 58 -17 77 17 13 24 13 30 0
55 -20 34 -64 42 -79 13z m57 -44 c3 -35 1 -38 -20 -35 -24 3 -35 34 -24 64
12 30 41 11 44 -29z"/>
<path d="M2220 445 c-16 -20 -6 -43 25 -55 14 -5 25 -14 25 -20 0 -14 -37 -12
-43 3 -2 6 -8 9 -12 5 -18 -17 5 -39 37 -36 28 2 33 7 33 28 0 17 -8 29 -27
38 -16 7 -28 17 -28 23 0 14 38 11 43 -3 2 -7 8 -10 12 -6 11 11 -14 38 -35
38 -10 0 -23 -7 -30 -15z"/>
<path d="M2290 450 c0 -5 9 -10 20 -10 17 0 20 -7 20 -50 0 -27 5 -50 10 -50
6 0 10 23 10 50 0 43 3 50 20 50 16 0 20 -7 20 -38 0 -43 14 -62 45 -62 33 0
45 20 45 72 0 62 -18 63 -22 1 -3 -40 -6 -48 -23 -48 -17 0 -20 8 -23 48 l-3
47 -60 0 c-33 0 -59 -4 -59 -10z"/>
<path d="M2500 400 c0 -59 0 -60 28 -60 38 0 52 17 52 62 0 40 -19 58 -59 58
-19 0 -21 -6 -21 -60z m55 0 c0 -25 -5 -36 -17 -38 -15 -3 -18 4 -18 38 0 34
3 41 18 38 12 -2 17 -13 17 -38z"/>
<path d="M2600 400 c0 -33 4 -60 10 -60 6 0 10 27 10 60 0 33 -4 60 -10 60 -6
0 -10 -27 -10 -60z"/>
<path d="M2646 438 c-32 -45 -13 -98 34 -98 19 0 33 7 40 19 35 67 -33 139
-74 79z m59 -18 c9 -29 -4 -60 -25 -60 -10 0 -22 9 -25 20 -9 29 4 60 25 60
10 0 22 -9 25 -20z"/>
</g>
</svg>
